<svg height="2238" width="720" xmlns="http://www.w3.org/2000/svg">
<rect height="2238" fill="#555" width="720"></rect>
<text fill="#7f7" font-family="Courier New" font-size="12" xml:space="preserve">
<tspan x="10" y="26"></tspan>
<tspan x="10" y="42">&gt; npmdoc-shortid@0.0.1 test /home/travis/build/npmdoc/node-npmdoc-shortid</tspan>
<tspan x="10" y="58">&gt; (set -e; export PORT=$(utility2 shServerPortRandom); utility2 test test.js)</tspan>
<tspan x="10" y="74"></tspan>
<tspan x="10" y="90"></tspan>
<tspan x="10" y="106">[MODE_BUILD=npmTest] - 2017-03-25T12:31:43Z - npm-testing /home/travis/build/npmdoc/node-npmdoc-\</tspan>
<tspan x="10" y="122">shortid</tspan>
<tspan x="10" y="138"></tspan>
<tspan x="10" y="154"></tspan>
<tspan x="10" y="170">covering $ /home/travis/.nvm/versions/node/v6.10.1/bin/node /home/travis/build/npmdoc/node-npmdo\</tspan>
<tspan x="10" y="186">c-shortid/test.js</tspan>
<tspan x="10" y="202">merging file:///home/travis/build/npmdoc/node-npmdoc-shortid/tmp/build/test-report.json to test-\</tspan>
<tspan x="10" y="218">report</tspan>
<tspan x="10" y="234">&gt; server listening on http-port 48683</tspan>
<tspan x="10" y="250">created apidoc file:///home/travis/build/npmdoc/node-npmdoc-shortid/tmp/build/apidoc.html</tspan>
<tspan x="10" y="266"></tspan>
<tspan x="10" y="282"></tspan>
<tspan x="10" y="298">browserTest - created electron entry-page /home/travis/build/npmdoc/node-npmdoc-shortid/tmp/elec\</tspan>
<tspan x="10" y="314">tron.15b0573724e0.0c42b258097e.html</tspan>
<tspan x="10" y="330"></tspan>
<tspan x="10" y="346">[node test-case 1 of 6 passed] - testCase_buildLib_default</tspan>
<tspan x="10" y="362">[node test-case 2 of 6 passed] - testCase_buildReadme_default</tspan>
<tspan x="10" y="378">[node test-case 3 of 6 passed] - testCase_buildTest_default</tspan>
<tspan x="10" y="394"></tspan>
<tspan x="10" y="410">browserTest - created electron entry-page /home/travis/build/npmdoc/node-npmdoc-shortid/tmp/elec\</tspan>
<tspan x="10" y="426">tron.15b057372ae0.668f9a30f670c.html</tspan>
<tspan x="10" y="442"></tspan>
<tspan x="10" y="458">Xlib:  extension "RANDR" missing on display ":99.0".</tspan>
<tspan x="10" y="474">Xlib:  extension "RANDR" missing on display ":99.0".</tspan>
<tspan x="10" y="490">&gt; server listening on http-port 55401</tspan>
<tspan x="10" y="506"></tspan>
<tspan x="10" y="522">/home/travis/build/npmdoc/node-npmdoc-shortid/node_modules/utility2/lib.utility2.sh.html.js</tspan>
<tspan x="10" y="538"> #1 Line too long.</tspan>
<tspan x="10" y="554">    process.stdout.write('export npm_package_' + key.replace((/\W/g), '_') + '=' + JSON.stringif\</tspan>
<tspan x="10" y="570">y(value) + ';'); // Line 1445, Pos 116</tspan>
<tspan x="10" y="586"></tspan>
<tspan x="10" y="602">merging file:///home/travis/build/npmdoc/node-npmdoc-shortid/tmp/build/test-report.json to test-\</tspan>
<tspan x="10" y="618">report</tspan>
<tspan x="10" y="634">Xlib:  extension "RANDR" missing on display ":99.0".</tspan>
<tspan x="10" y="650">[4887:0325/123144:WARNING:audio_manager.cc(314)] Multiple instances of AudioManager detected</tspan>
<tspan x="10" y="666">[4887:0325/123144:WARNING:audio_manager.cc(275)] Multiple instances of AudioManager detected</tspan>
<tspan x="10" y="682"></tspan>
<tspan x="10" y="698">/home/travis/build/npmdoc/node-npmdoc-shortid/node_modules/utility2/lib.utility2.sh.html.js</tspan>
<tspan x="10" y="714"> #1 Line too long.</tspan>
<tspan x="10" y="730">    process.stdout.write('export npm_package_' + key.replace((/\W/g), '_') + '=' + JSON.stringif\</tspan>
<tspan x="10" y="746">y(value) + ';'); // Line 1445, Pos 116</tspan>
<tspan x="10" y="762"></tspan>
<tspan x="10" y="778">[4922:0325/123144:ERROR:sandbox_linux.cc(343)] InitializeSandbox() called with multiple threads \</tspan>
<tspan x="10" y="794">in process gpu-process. </tspan>
<tspan x="10" y="810">[4887:0325/123144:ERROR:browser_gpu_channel_host_factory.cc(131)] Failed to create channel.</tspan>
<tspan x="10" y="826">merging file:///home/travis/build/npmdoc/node-npmdoc-shortid/tmp/build/test-report.json to test-\</tspan>
<tspan x="10" y="842">report</tspan>
<tspan x="10" y="858">Xlib:  extension "RANDR" missing on display ":99.0".</tspan>
<tspan x="10" y="874">[4899:0325/123144:WARNING:audio_manager.cc(314)] Multiple instances of AudioManager detected</tspan>
<tspan x="10" y="890">[4899:0325/123144:WARNING:audio_manager.cc(275)] Multiple instances of AudioManager detected</tspan>
<tspan x="10" y="906">[4952:0325/123144:ERROR:sandbox_linux.cc(343)] InitializeSandbox() called with multiple threads \</tspan>
<tspan x="10" y="922">in process gpu-process. </tspan>
<tspan x="10" y="938"></tspan>
<tspan x="10" y="954">browserTest - opened url file:///home/travis/build/npmdoc/node-npmdoc-shortid/tmp/build/apidoc.h\</tspan>
<tspan x="10" y="970">tml</tspan>
<tspan x="10" y="986"></tspan>
<tspan x="10" y="1002"></tspan>
<tspan x="10" y="1018">browserTest - opened url http://127.0.0.1:48683?modeTest=1</tspan>
<tspan x="10" y="1034"></tspan>
<tspan x="10" y="1050">[4899:0325/123146:INFO:CONSOLE(203)] "----------|-----------|-----------|-----------|-----------\</tspan>
<tspan x="10" y="1066">|</tspan>
<tspan x="10" y="1082">File      |   % Stmts |% Branches |   % Funcs |   % Lines |</tspan>
<tspan x="10" y="1098">----------|-----------|-----------|-----------|-----------|</tspan>
<tspan x="10" y="1114">----------|-----------|-----------|-----------|-----------|</tspan>
<tspan x="10" y="1130">All files |       100 |       100 |       100 |       100 |</tspan>
<tspan x="10" y="1146">----------|-----------|-----------|-----------|-----------|</tspan>
<tspan x="10" y="1162">", source: file:///home/travis/build/npmdoc/node-npmdoc-shortid/tmp/electron.15b057372ae0.668f9a\</tspan>
<tspan x="10" y="1178">30f670c.html (203)</tspan>
<tspan x="10" y="1194">[4899:0325/123146:INFO:CONSOLE(203)] "created coverage file:///tmp/build/coverage.html/index.htm\</tspan>
<tspan x="10" y="1210">l", source: file:///home/travis/build/npmdoc/node-npmdoc-shortid/tmp/electron.15b057372ae0.668f9\</tspan>
<tspan x="10" y="1226">a30f670c.html (203)</tspan>
<tspan x="10" y="1242">[node test-case 4 of 6 passed] - testCase_buildApp_default</tspan>
<tspan x="10" y="1258"></tspan>
<tspan x="10" y="1274">browserTest - created screen-capture file:///home/travis/build/npmdoc/node-npmdoc-shortid/tmp/bu\</tspan>
<tspan x="10" y="1290">ild/screen-capture.npmTest.browser._2Fhome_2Ftravis_2Fbuild_2Fnpmdoc_2Fnode-npmdoc-shortid_2Ftmp\</tspan>
<tspan x="10" y="1306">_2Fbuild_2Fapidoc.html.png</tspan>
<tspan x="10" y="1322"></tspan>
<tspan x="10" y="1338"></tspan>
<tspan x="10" y="1354">browserTest - exit-code 0 - file:///home/travis/build/npmdoc/node-npmdoc-shortid/tmp/build/apido\</tspan>
<tspan x="10" y="1370">c.html</tspan>
<tspan x="10" y="1386"></tspan>
<tspan x="10" y="1402">[node test-case 5 of 6 passed] - testCase_buildApidoc_default</tspan>
<tspan x="10" y="1418"></tspan>
<tspan x="10" y="1434">browserTest - created screen-capture file:///home/travis/build/npmdoc/node-npmdoc-shortid/tmp/bu\</tspan>
<tspan x="10" y="1450">ild/screen-capture.npmTest.browser..png</tspan>
<tspan x="10" y="1466"></tspan>
<tspan x="10" y="1482"></tspan>
<tspan x="10" y="1498">browserTest - exit-code 0 - http://127.0.0.1:48683?modeTest=1</tspan>
<tspan x="10" y="1514"></tspan>
<tspan x="10" y="1530"></tspan>
<tspan x="10" y="1546">browserTest - merged coverage from /home/travis/build/npmdoc/node-npmdoc-shortid/tmp/coverage.np\</tspan>
<tspan x="10" y="1562">mTest.browser.%2F.json</tspan>
<tspan x="10" y="1578"></tspan>
<tspan x="10" y="1594"></tspan>
<tspan x="10" y="1610">browserTest - merging test-report from /home/travis/build/npmdoc/node-npmdoc-shortid/tmp/test-re\</tspan>
<tspan x="10" y="1626">port.npmTest.browser.%2F.json</tspan>
<tspan x="10" y="1642"></tspan>
<tspan x="10" y="1658">[node test-case 6 of 6 passed] - testCase_webpage_default</tspan>
<tspan x="10" y="1674">----------------------------|-----------|-----------|-----------|-----------|</tspan>
<tspan x="10" y="1690">File                        |   % Stmts |% Branches |   % Funcs |   % Lines |</tspan>
<tspan x="10" y="1706">----------------------------|-----------|-----------|-----------|-----------|</tspan>
<tspan x="10" y="1722">   node-npmdoc-shortid/     |       100 |       100 |       100 |       100 |</tspan>
<tspan x="10" y="1738">      example.js            |       100 |       100 |       100 |       100 |</tspan>
<tspan x="10" y="1754">      lib.npmdoc_shortid.js |       100 |       100 |       100 |       100 |</tspan>
<tspan x="10" y="1770">      test.js               |       100 |       100 |       100 |       100 |</tspan>
<tspan x="10" y="1786">----------------------------|-----------|-----------|-----------|-----------|</tspan>
<tspan x="10" y="1802">All files                   |       100 |       100 |       100 |       100 |</tspan>
<tspan x="10" y="1818">----------------------------|-----------|-----------|-----------|-----------|</tspan>
<tspan x="10" y="1834"></tspan>
<tspan x="10" y="1850">created coverage file:///home/travis/build/npmdoc/node-npmdoc-shortid/tmp/build/coverage.html/in\</tspan>
<tspan x="10" y="1866">dex.html</tspan>
<tspan x="10" y="1882"></tspan>
<tspan x="10" y="1898">/home/travis/build/npmdoc/node-npmdoc-shortid/node_modules/utility2/lib.utility2.sh.html.js</tspan>
<tspan x="10" y="1914"> #1 Line too long.</tspan>
<tspan x="10" y="1930">    process.stdout.write('export npm_package_' + key.replace((/\W/g), '_') + '=' + JSON.stringif\</tspan>
<tspan x="10" y="1946">y(value) + ';'); // Line 1445, Pos 116</tspan>
<tspan x="10" y="1962"></tspan>
<tspan x="10" y="1978">merging file:///home/travis/build/npmdoc/node-npmdoc-shortid/tmp/build/test-report.json to test-\</tspan>
<tspan x="10" y="1994">report</tspan>
<tspan x="10" y="2010"></tspan>
<tspan x="10" y="2026">-------------------------------------------------------</tspan>
<tspan x="10" y="2042">| test-report - buildNpmdoc - node - linux v6.10.1 - 2017-03-25T12:31:32.679Z</tspan>
<tspan x="10" y="2058">|   16290 ms            0 failed        6 passed      |</tspan>
<tspan x="10" y="2074">-------------------------------------------------------</tspan>
<tspan x="10" y="2090"></tspan>
<tspan x="10" y="2106">created test-report file:///home/travis/build/npmdoc/node-npmdoc-shortid/tmp/build/test-report.h\</tspan>
<tspan x="10" y="2122">tml</tspan>
<tspan x="10" y="2138"></tspan>
<tspan x="10" y="2154"></tspan>
<tspan x="10" y="2170">npmTest - 0 failed tests</tspan>
<tspan x="10" y="2186"></tspan>
<tspan x="10" y="2202"></tspan>
<tspan x="10" y="2218">[MODE_BUILD=npmTest] - 2017-03-25T12:31:52Z - EXIT_CODE - 0</tspan>
</text>
</svg>
